<svg version="1.1"
      xmlns="http://www.w3.org/2000/svg"
      xmlns:xlink="http://www.w3.org/1999/xlink"  id="snapshot-90724" width="250" height="250" viewBox="0 0 250 250"><desc>This image was made on Patterninja.com</desc><defs>
<!-- image 16792 -->
<g id="transformed-16792" data-image="16792" transform="translate(-61.44389354849649, -38.3337833051513) rotate(30, 78.44389354849649, 82.1137833051513)"><g><svg version="1.1" width="156.88778709699298px" height="164.2275666103026px" viewBox="0 0 156.88778709699298 164.2275666103026"><g id="original-16792"><svg xmlns="http://www.w3.org/2000/svg" version="1.1" viewBox="0 0 880 920" xmlns:xlink="http://www.w3.org/1999/xlink" preserveAspectRatio="xMidYMid meet">
  <path d="M416.5 40.6c-61.4 4.8-109.7 18.3-161.2 44.9C146.5 141.7 68.9 246.8 46.6 368c-4.7 25.6-6 41.3-6 72 0 21 .5 32.4 1.8 43.5 9.3 78.3 37.7 146.6 86.4 207.7 13.6 17.1 42.9 46.4 60.2 60.2 60.7 48.4 128.5 76.7 207 86.2 18.1 2.2 64.4 2.5 83 .6 92.6-9.8 174.4-47.9 240.4-112.2 67.6-65.8 108.7-151.4 118.8-247 1.9-18.5 1.6-64.8-.6-83-9.4-78.3-37.8-146.3-86.2-207-13.8-17.3-43.1-46.6-60.2-60.2C630.3 80.3 561.1 51.4 484 42.5c-12.8-1.5-56.8-2.7-67.5-1.9zm348 252.6c13.9 30 24.4 67.5 29.1 104.3 2.3 17.4 2.6 64.4.6 80.5-6.8 54.6-22 100-48.5 144.5-24.8 41.8-61.2 80.9-101.3 109.1-49.2 34.5-103.1 54.7-166.4 62.6-16.1 2-63.1 1.7-80.5-.6-42-5.3-78.6-16.4-115.5-34.7-50.9-25.3-92.9-60.2-126.7-105.3-8.4-11.2-10.1-14.2-9.1-15.1.7-.7 6-3.9 11.8-7.2 5.8-3.3 41.5-23.8 79.3-45.7 37.8-21.8 69.4-40 70.3-40.3.9-.3 4.6 2.9 10.5 9.1 24.4 25.8 53.5 42.1 88.9 49.8 9.2 2 13.3 2.3 33 2.2 19.6 0 23.9-.3 33-2.2 15.7-3.4 29.9-8.5 44-15.8 44.6-22.9 76.2-64.8 87.2-115.4 1.9-9.1 2.2-13.4 2.2-33 .1-24.8-1.2-33.5-7.5-52.4-1.6-4.9-2.8-9-2.7-9.1.5-.5 163.3-94.5 163.6-94.5.2 0 2.3 4.2 4.7 9.2zm-304.2 28.3c51.5 9.1 91.2 49.8 98.8 101.5 1.8 12.5.7 34.2-2.4 46.1-11.4 43.7-43.9 76.2-87.6 87.6-11.9 3.1-33.6 4.2-46.1 2.4-45.1-6.6-83-38.4-97-81.2-4.8-14.7-6.4-26.2-5.7-42.9.9-23.5 6.9-42.2 20-61.7 18.3-27.4 49.7-47.6 81.3-52.2 9.8-1.4 29.2-1.2 38.7.4z" fill="rgba(0, 0, 0, 1)" stroke="none"/>
</svg>
</g></svg></g></g>
<!-- /image 16792 -->
</defs><rect x="0" y="0" width="250" height="250" fill="rgba(255, 82, 82, 1)"></rect><use xlink:href="#transformed-16792" transform="translate(-250, -250)"></use><use xlink:href="#transformed-16792" transform="translate(0, -250)"></use><use xlink:href="#transformed-16792" transform="translate(250, -250)"></use><use xlink:href="#transformed-16792" transform="translate(-250, 0)"></use><use xlink:href="#transformed-16792" transform="translate(0, 0)"></use><use xlink:href="#transformed-16792" transform="translate(250, 0)"></use><use xlink:href="#transformed-16792" transform="translate(-250, 250)"></use><use xlink:href="#transformed-16792" transform="translate(0, 250)"></use><use xlink:href="#transformed-16792" transform="translate(250, 250)"></use></svg>